<?xml version="1.0" encoding="UTF-8"?>
<!DOCTYPE svg PUBLIC "-//W3C//DTD SVG 1.1//EN" "http://www.w3.org/Graphics/SVG/1.1/DTD/svg11.dtd">
<!-- Creator: CorelDRAW -->
<svg xmlns="http://www.w3.org/2000/svg" xml:space="preserve" width="216.076mm" height="152.576mm" version="1.1" style="shape-rendering:geometricPrecision; text-rendering:geometricPrecision; image-rendering:optimizeQuality; fill-rule:evenodd; clip-rule:evenodd"
viewBox="0 0 21607.64 15257.64"
 xmlns:xlink="http://www.w3.org/1999/xlink">
 <defs>
  <style type="text/css">
   <![CDATA[
    .str0 {stroke:black;stroke-width:17.64;stroke-miterlimit:22.9256}
    .fil0 {fill:black}
    .fil1 {fill:white}
   ]]>
  </style>
 </defs>
 <g id="Layer_x0020_1">
  <metadata id="CorelCorpID_0Corel-Layer"/>
  <rect class="fil0 str0" x="8.82" y="8.82" width="21590" height="15240"/>
  <path class="fil1" d="M7351.57 6816.71l0 28.89c107.02,0 320.32,79.97 195.9,388.83l-356.26 915.43 -429.56 -1073.19c-42.22,-102.21 -51.11,-224.42 122.2,-224.42l0 -35.54 -561.04 0 0 35.54c119.63,0 172.94,166.66 172.94,166.66l583.63 1493.12 535.48 -1366.49c51.32,-114.4 113.01,-277.48 260.73,-297.83 69.34,8.01 125.72,42.24 125.72,157.86l0 1246.5c0,137.75 -79.99,159.97 -166.66,159.97l0 28.89 562.16 0 555.47 0 0 -28.89c-107.01,0 -320.31,-79.98 -195.9,-388.83l356.26 -915.43 429.57 1073.19c42.21,102.21 51.11,224.42 -122.2,224.42l0 35.54 561.03 0 1208.73 0 48.88 -482.15 -46.66 0c-113.31,459.93 -446.61,453.26 -613.25,453.26 -79.99,0 -162.19,-39.99 -162.19,-157.74l0 -1239.84c0,-153.32 66.65,-166.64 159.97,-166.64l0 -31.11 -595.48 0 0 28.89c73.33,0 195.53,8.87 195.53,162.19l0 1244.28c0,155.53 -106.64,157.75 -195.53,157.75l0 -4.43c-119.62,0 -172.93,-166.66 -172.93,-166.66l-583.63 -1493.12 -535.48 1366.49c-54.82,122.2 -121.47,299.94 -292.19,299.94 -86.66,0 -168.88,-22.22 -168.88,-159.97l0 -1246.5c0,-137.76 82.22,-159.97 168.88,-159.97l0 -28.89 -489.77 0 -72.39 0 -483.08 0zm7902.15 1624.22l-1080.13 0 -126.37 0 -455.77 0 0 -28.89c117.76,0 144.42,-24.44 144.42,-55.55 0,-19.99 -17.78,-39.99 -28.88,-57.76l-395.51 -593.25 -239.96 346.62c0,0 -248.86,359.94 46.66,359.94l0 28.89 -531.05 0 0 -28.89c211.09,0 459.95,-373.28 459.95,-373.28l248.86 -359.95 -457.73 -673.24c0,0 -74.27,-131.8 -185.48,-154.44 -98.47,16.67 -231.23,99.65 -231.23,318.85l0 597.7c2.23,519.93 -142.2,702.14 -531.03,702.14 -491.04,0 -555.49,-362.19 -555.49,-617.7l0 -830.99c0,-135.54 -77.75,-173.31 -193.3,-173.31l0 -31.11 588.81 0 0 31.11c-119.99,0 -166.64,35.54 -166.64,173.31 0,99.97 -6.67,913.21 13.34,1017.63 17.77,124.43 62.2,246.63 177.74,306.63 48.88,24.44 97.78,33.33 151.09,33.33 491.04,0 486.61,-419.94 486.61,-611.04l0 -599.9c0,-253.31 -164.43,-319.96 -268.85,-319.96l0 -31.11 496.69 0 69.9 0 510.01 0 0 28.89c-113.31,0 -144.42,26.66 -144.42,59.98 0,19.99 13.34,37.78 22.21,53.33l358.11 528.82 204.41 -286.63c0,0 269.22,-355.5 -51.09,-355.5l0 -28.89 457.62 0 76.01 0 1088.27 0 28.89 408.83 -33.33 0c-44.44,-231.07 -215.52,-379.94 -459.93,-379.94l-104.44 0c-115.53,0 -166.64,64.43 -166.64,153.3l0 608.81 99.99 0c191.08,-6.67 302.18,-139.99 302.18,-286.63l35.55 0 0 599.92 -35.55 0c0,-146.65 -122.2,-275.52 -306.63,-282.19l-95.54 0 0 619.92c0,146.64 162.2,153.31 166.64,153.31l144.42 0c306.64,0 444.39,-204.42 462.17,-426.61l35.55 0 -31.11 455.5zm-1131.01 -38.15c63.52,-16.64 122.26,-58.84 122.26,-150.71l0 -1246.5c0,-119.32 -88.91,-149.73 -151.38,-157.41 -194.5,32.59 -424.01,366.27 -424.01,366.27l-215.52 299.97 522.52 768.77c0,0 62.15,90.07 146.13,119.61z"/>
  <path class="fil1" d="M9116.06 7671.78l-142.78 320.11 142.78 320.1 142.76 -320.1 -142.76 -320.11zm0 84.26l0 0 108.9 235.85 -108.9 235.83 0 -471.68z"/>
 </g>
</svg>
