<svg xmlns="http://www.w3.org/2000/svg" width="56.395" height="56.395" viewBox="0 0 56.395 56.395">
  <g id="Group_9" data-name="Group 9" transform="translate(0 0)">
    <path id="Path_7" data-name="Path 7" d="M0,0H56.4V56.4H0Z" transform="translate(0 0)" fill="none"/>
    <path id="Path_8" data-name="Path 8" d="M49,4.159a42.162,42.162,0,0,1-7.049,2.326c-2.634-2.972-6.539-3.137-10.292-1.732A9.241,9.241,0,0,0,25.5,13.535v2.35a22.07,22.07,0,0,1-18.8-9.4s-9.827,17.466,9.4,25.848c-4.4,2.93-8.786,4.906-14.1,4.7C9.773,41.27,18.244,42.727,25.578,40.6A25.858,25.858,0,0,0,43.556,22.405a32.521,32.521,0,0,0,1.168-8.819c0-.585,3.548-6.514,4.272-9.43Z" transform="translate(2.7 5.263)" fill="none" stroke="#000" stroke-linecap="round" stroke-linejoin="round" stroke-width="3"/>
  </g>
</svg>
